<?xml version="1.0" encoding="UTF-8"?>
<svg width="752pt" height="752pt" version="1.1" viewBox="0 0 752 752" xmlns="http://www.w3.org/2000/svg">
 <g>
  <rect width="752" height="752" fill="#fff"/>
  <path d="m362.17 536.83h-1.9414c-2.1797-0.23828-4.1211-1.0898-5.3984-2.793-1.2773-1.7031-1.9414-3.6484-1.7031-5.8242v-0.47656l2.3672-9.4727c-1.0898-0.66406-1.9414-1.2773-2.793-2.1797-1.9414-2.1797-3.0312-5.1602-2.6055-8.1914l2.3672-25.004c0.66406-5.5898 3.6484-10.371 8.4297-13.164-3.6484-3.8828-5.8242-9.2812-5.8242-15.105 0-9.4727 5.8242-17.477 14.254-20.695l5.1602-34.051c0.42578-2.793 1.5156-5.3984 3.2188-7.3398-1.2773-0.42578-2.793-0.85156-4.3086-0.85156l-5.5898-0.42578c-4.5469 3.457-9.8984 5.3984-15.961 5.3984-6.0156 0-11.648-1.9414-15.961-5.3984l-5.5898 0.42578c-8.6211 0.42578-15.105 7.957-14.68 16.621l3.0312 50.484c0.42578 6.4883 5.8242 11.648 12.312 11.648h0.85156l5.1602 78.52c0.42578 7.3398 4.5469 11.414 9.707 11.414h10.133c2.793 0 5.5898-1.2773 7.3398-3.6484-0.42578-1.0898-0.66406-2.1797-0.85156-3.2188z"/>
  <path d="m330.25 370.13c0 12.027 9.7539 21.785 21.785 21.785 12.027 0 21.785-9.7539 21.785-21.785 0-12.027-9.7539-21.785-21.785-21.785s-21.785 9.7578-21.785 21.785z"/>
  <path d="m403.75 391.91c12.027 0 21.785-9.7539 21.785-21.785 0-12.027-9.7539-21.785-21.785-21.785-12.027 0-21.785 9.7539-21.785 21.785 0.046875 12.027 9.7539 21.785 21.785 21.785z"/>
  <path d="m428.38 400.34c-0.66406-4.7344-4.5469-8.1914-9.2812-8.6211h-0.23828c-4.3086 3.0312-9.4727 4.9727-15.297 4.9727s-10.988-1.7031-15.297-4.9727h-0.23828c-4.7344 0.42578-8.6211 4.1211-9.2812 8.6211l-4.7344 31.918c1.0898-0.23828 2.1797-0.23828 3.457-0.23828 12.312 0 22.449 9.8984 22.449 22.449 0 5.8242-2.1797 10.988-5.8242 15.105 4.7344 2.793 7.7656 7.5312 8.4297 13.164l2.3672 25.004c0.23828 3.0312-0.66406 6.0625-2.6055 8.1914-0.85156 0.85156-1.7031 1.7031-2.793 2.1797l2.3672 9.4727v0.47656c0.23828 2.1797-0.23828 4.3086-1.7031 5.8242-1.2773 1.7031-3.2188 2.6055-5.5898 2.793h-1.7031l-1.5156 15.961v0.42578c1.2773 3.8828 4.9727 6.6758 9.2812 6.6758h5.5898c5.1602 0 9.2812-3.8828 9.707-9.0469l3.457-51.953 10.797-0.66406c3.0312-0.23828 5.3984-2.793 4.9727-5.8242l-5.8242-24.578h0.66406c4.5469 0 8.1914-4.1211 7.3398-8.6211z"/>
  <path d="m377.66 472.38c9.8984 0 17.902-8.0039 17.902-17.902 0-9.8984-8.0039-17.902-17.902-17.902-9.8984 0-17.902 8.0039-17.902 17.902 0.046876 9.8516 8.0508 17.902 17.902 17.902z"/>
  <path d="m397.74 528.64-3.6484-13.781h0.66406c3.6484 0 6.4883-3.0312 6.0156-6.6758l-2.6055-25.004c-0.42578-4.7344-3.6484-8.8555-7.957-10.562-3.6484 2.6055-7.957 3.8828-12.504 3.8828-4.7344 0-9.0469-1.5156-12.504-3.8828-4.3086 1.7031-7.5312 5.8242-7.957 10.562l-2.6055 25.004c-0.42578 3.6484 2.3672 6.6758 6.0156 6.6758h0.66406l-3.6484 13.781c-0.23828 1.7031 1.0898 3.457 2.793 3.457l5.7852 0.1875 1.9414 19.844c0.42578 4.3086 3.8828 7.5312 8.1914 7.5312h2.6055c4.3086 0 7.7656-3.2188 8.1914-7.5312l1.9453-19.844 5.8242-0.1875c1.7031 0 3.0312-1.7539 2.793-3.457z"/>
  <path d="m330.25 303.45c0.1875-4.4062-5.4922-11.555-11.746-13.543-4.4062-1.4688-5.6836 0.51953-7.6719 2.1797-8.4766 8.9961-11.461 13.164-16.953 19.652-0.42578 0.66406-1.4219 1.5156-1.7539 2.6992l-13.543 26.285c-0.47266 1.1836-1.3242 2.082-2.3203 2.7461-1.5625-1.8008-1.7539-4.6406-0.66406-7.293l17.809-35.141c0.42578-0.66406 0.42578-0.66406 0.85156-1.3242 0.89844-0.75781 19.938-23.914 31.539-36.609l31.066-40.066c3.1719-3.9297 2.6055-9.707-1.3242-12.93-3.3633-2.7461-8.1914-2.793-11.602-0.09375l-97.227 79.844c-11.32 9.2812-19.559 22.023-22.398 35.375l-16.719 58.348c-2.3203 7.7656-25.766 140.27-25.766 140.27h76.105l6.3945-96.23 2.1328-10.133c1.9883-1.6562 4.0273-3.3633 5.9688-5.1133 3.9297-3.3164 8.3828-6.7734 12.172-10.609 10.656-9.6133 19.133-21.312 25.527-42.289 2.0352-6.582 1.5156-9.707 4.168-15.961 5.0664-11.27 2.0352-6.582 8.5234-16.621 6.7188-11.75 7.4766-18 7.4297-23.445z"/>
  <path d="m544.88 383.58-16.719-58.297c-2.8398-13.355-11.082-26.094-22.398-35.375l-97.227-79.988c-3.4102-2.6992-8.2422-2.6523-11.602 0.09375-3.9297 3.2188-4.5 8.9961-1.3242 12.93l31.066 40.066c11.602 12.691 30.688 35.852 31.539 36.609 0.42578 0.66406 0.42578 0.66406 0.85156 1.3242l17.809 35.141c1.0898 2.6523 0.89844 5.4922-0.66406 7.293-0.99609-0.71094-1.8477-1.6094-2.3203-2.7461l-13.543-26.191c-0.33203-1.1836-1.2773-1.9883-1.7539-2.6992-5.5391-6.4883-8.5234-10.656-16.953-19.652-1.9414-1.6562-3.2695-3.6484-7.6719-2.1797-6.25 2.0352-11.934 9.1406-11.746 13.543-0.046875 5.4453 0.71094 11.699 7.3867 23.441 6.4883 10.039 3.457 5.3516 8.5234 16.621 2.6992 6.25 2.1797 9.375 4.168 15.961 6.3945 20.934 14.871 32.676 25.527 42.289 3.7891 3.8359 8.2891 7.293 12.172 10.609 1.9883 1.7539 4.0273 3.457 5.9688 5.1133l2.1328 10.133 6.3945 96.23 76.148 0.003906s-23.445-132.51-25.766-140.27z"/>
 </g>
</svg>
