<?xml version="1.0" encoding="UTF-8"?>
<svg width="752pt" height="752pt" version="1.1" viewBox="0 0 752 752" xmlns="http://www.w3.org/2000/svg">
 <defs>
  <clipPath id="b">
   <path d="m246 139.21h142v473.58h-142z"/>
  </clipPath>
  <clipPath id="a">
   <path d="m401 139.21h105v473.58h-105z"/>
  </clipPath>
 </defs>
 <rect width="752" height="752" fill="#fff"/>
 <g clip-path="url(#b)">
  <path d="m246.51 139.21v473.58h140.59v-473.58zm14.797 55.496h22.199v7.3984h-22.199zm0 22.199h22.199v7.3984h-22.199zm0 44.398h22.199v7.3984h-22.199zm0 22.199h22.199v7.3984h-22.199zm0 44.398h22.199v7.3984h-22.199zm0 22.199h22.199v7.3984h-22.199zm0 44.398h22.199v7.3984h-22.199zm0 22.199h22.199v7.3984h-22.199zm0 44.398h22.199v7.3984h-22.199zm0 22.199h22.199v7.3984h-22.199zm0 44.398h22.199v7.3984h-22.199zm0 22.199h22.199v7.3984h-22.199zm37 29.598h-37v-7.3984h37zm0-66.598h-37v-7.3984h37zm0-66.598h-37v-7.3984h37zm0-66.594h-37v-7.3984h37zm0-66.598h-37v-7.3984h37zm0-66.598h-37v-7.3984h37zm0-66.598h-37v-7.4023h37z"/>
 </g>
 <g clip-path="url(#a)">
  <path d="m483.3 139.21h-59.199c-12.211 0-22.199 9.9883-22.199 22.199v304.5l51.801 146.89 51.797-146.88v-304.5c0-12.211-9.9883-22.199-22.199-22.199zm-37 14.801h14.801v307.83l-7.3984 7.3984-7.3984-7.3984c-0.003906 0-0.003906-307.83-0.003906-307.83zm13.691 396.25h-12.578l-22.57-63.27c1.4805 0 3.3281-0.73828 4.4414-1.8516l9.6211-9.6211 9.6211 9.6211c1.4766 1.1133 3.3242 1.8516 5.1758 1.8516 1.8516 0 3.6992-0.73828 5.1797-2.2188l9.6211-9.6211 9.6211 9.6211c1.1094 1.1094 2.9609 1.8516 4.4414 2.2188z"/>
 </g>
</svg>
