<?xml version="1.0" encoding="UTF-8"?>
<svg width="752pt" height="752pt" version="1.1" viewBox="0 0 752 752" xmlns="http://www.w3.org/2000/svg">
 <g>
  <rect width="752" height="752" fill="#fff"/>
  <path d="m599.45 453.41c-7.9102-13.695-25.418-18.395-39.129-10.48l-104.92 60.578c-0.52734 3.0273-1.4648 6.2148-3.1016 9.4844-3.293 6.5508-13.535 21.594-37.59 20.047-20.145-1.2969-109.23-28.254-113.17-29.453-0.097656-0.027344-9.418-3.0078-18.664-0.30469-2.8477 0.84766-5.793-0.42578-7.2109-2.8789-0.24219-0.42578-0.44531-0.89062-0.58594-1.3789-0.97656-3.3281 0.92969-6.8242 4.2617-7.8008 13.121-3.8516 25.652 0.26563 26 0.38281 25.379 7.6992 94.656 27.879 110.19 28.883 15.914 1.0273 22.816-7.7578 25.516-13.117 1.9609-4.9766 2.4141-8.9023 1.6094-13.699-2.5117-15.09-18.402-18.168-18.402-18.168 0 0.007813-135.3-48.52-167.66-55.668-32.359-7.1367-48.598 3.8594-48.598 3.8594l-59.293 34.234 61.824 107.09 36.91-21.305s83.797 19.383 131.6 33.719c47.809 14.348 61.094 1.0391 61.094 1.0391l148.84-85.934c13.695-7.9141 18.391-25.43 10.477-39.133zm-145.82 36.07 101.37-58.523c-8.6953-5.4414-20.027-6.0273-29.543-0.53906l-78.672 45.422c3.2227 4 5.5312 8.6641 6.8438 13.641zm-24.348-25.578c3.0625 0.95703 5.8828 2.3164 8.4805 3.9453l84.914-49.02c-8.6953-5.4453-20.031-6.0273-29.547-0.53906l-73.672 42.531zm61.066-57.191c-8.6953-5.4453-20.027-6.0352-29.539-0.54297l-75.898 43.82 19.758 6.1914z" fill-rule="evenodd"/>
  <path d="m346.36 238.14c-0.66016-0.65234-1.3828-1.1602-2.1445-1.6055v-37.484c0-17.207-13.941-31.148-31.148-31.148-17.199 0-31.148 13.941-31.148 31.148v37.488c-0.76172 0.44141-1.4883 0.95313-2.1406 1.6016l-34.199 34.199c-4.1016 4.1055-4.1016 10.746 0 14.844 4.0977 4.1016 10.746 4.1016 14.836 0l21.168-21.168-25.766 71.227h29.488v37.625c0 5.7969 4.7031 10.496 10.5 10.496s10.5-4.7031 10.5-10.496v-37.625h13.527v37.625c0 5.7969 4.6914 10.496 10.488 10.496 5.793 0 10.496-4.7031 10.496-10.496v-37.625h29.496l-25.777-71.234 21.172 21.18c4.0977 4.1016 10.742 4.0898 14.844 0 4.0977-4.0977 4.0977-10.742 0-14.844z"/>
  <path d="m502.72 274.09-34.188-34.191c-2.0664-2.0586-4.7734-3.082-7.4531-3.0742h-51.691c-2.6953 0-5.3945 1.0234-7.4297 3.0742l-34.203 34.199c-4.0977 4.0977-4.0977 10.742 0 14.844 4.0977 4.1016 10.746 4.1016 14.844 0l21.496-21.5v70.289h3.3945v38.891c0 5.793 4.707 10.488 10.504 10.488s10.488-4.6992 10.488-10.488v-38.891h13.527v38.891c0 5.793 4.6875 10.488 10.488 10.488 5.793 0 10.5-4.6992 10.5-10.488v-38.891h3.3945v-70.301l21.5 21.496c4.0977 4.1094 10.742 4.1016 14.832 0 4.0977-4.0977 4.0977-10.738-0.003906-14.836z"/>
  <path d="m466.39 200.8c0 17.203-13.945 31.148-31.148 31.148-17.203 0-31.148-13.945-31.148-31.148 0-17.203 13.945-31.148 31.148-31.148 17.203 0 31.148 13.945 31.148 31.148"/>
 </g>
</svg>
