<?xml version="1.0" encoding="UTF-8"?>
<svg width="752pt" height="752pt" version="1.1" viewBox="0 0 752 752" xmlns="http://www.w3.org/2000/svg">
 <rect width="752" height="752" fill="#fff"/>
 <path transform="matrix(7.3997 0 0 7.3997 139.21 139.21)" d="m22.1 24.6c-1.8001 0-3.2999-1.4997-3.2999-3.2999v-5.0002c0-1.8001 1.4997-3.2999 3.2999-3.2999 1.8001 0 3.2999 1.4997 3.2999 3.2999v5.0002c0 1.8001-1.5003 3.2999-3.2999 3.2999zm0 0" fill="none" stroke="#000" stroke-linecap="round" stroke-linejoin="round" stroke-miterlimit="10" stroke-width="2"/>
 <path transform="matrix(7.3997 0 0 7.3997 139.21 139.21)" d="m32 17.1v-5.0002c0-1.8001 1.4997-3.2999 3.2999-3.2999 1.8001 0 3.2999 1.4997 3.2999 3.2999v5.0002" fill="none" stroke="#000" stroke-linecap="round" stroke-linejoin="round" stroke-miterlimit="10" stroke-width="2"/>
 <path transform="matrix(7.3997 0 0 7.3997 139.21 139.21)" d="m38.6 17.1v-6.6002c0-1.8001 1.4997-3.2999 3.2999-3.2999 1.8001 0 3.2999 1.4997 3.2999 3.2999v9.9001" fill="none" stroke="#000" stroke-linecap="round" stroke-linejoin="round" stroke-miterlimit="10" stroke-width="2"/>
 <path transform="matrix(7.3997 0 0 7.3997 139.21 139.21)" d="m23.3 38.7v18.3" fill="none" stroke="#000" stroke-linecap="round" stroke-linejoin="round" stroke-miterlimit="10" stroke-width="2"/>
 <path transform="matrix(7.3997 0 0 7.3997 139.21 139.21)" d="m18.8 20.4v8.3001c0 2.7999 0.79976 5.3 2.3 7.4" fill="none" stroke="#000" stroke-linecap="round" stroke-linejoin="round" stroke-miterlimit="10" stroke-width="2"/>
 <path transform="matrix(7.3997 0 0 7.3997 139.21 139.21)" d="m40.7 38.7v18.3" fill="none" stroke="#000" stroke-linecap="round" stroke-linejoin="round" stroke-miterlimit="10" stroke-width="2"/>
 <path transform="matrix(7.3997 0 0 7.3997 139.21 139.21)" d="m45.2 20.4v8.3001c0 3.9998-1.8001 7.6001-4.6001 9.9999" fill="none" stroke="#000" stroke-linecap="round" stroke-linejoin="round" stroke-miterlimit="10" stroke-width="2"/>
 <path transform="matrix(7.3997 0 0 7.3997 139.21 139.21)" d="m45.2 20.4c0-1.8001-1.4997-3.2999-3.2999-3.2999h-14.9c-0.90006 0-1.6998 0.69999-1.6998 1.6998 0 2.7002 2.2003 5.0002 5.0002 5.0002h8.3001c-4.6001 0-8.3001 3.7-8.3001 8.3001v1.6998" fill="none" stroke="#000" stroke-linecap="round" stroke-linejoin="round" stroke-miterlimit="10" stroke-width="2"/>
 <path transform="matrix(7.3997 0 0 7.3997 139.21 139.21)" d="m25.4 18.8v-5.0002c0-1.8001 1.4997-3.2999 3.2999-3.2999 1.8001 0 3.2999 1.4997 3.2999 3.2999v3.2999" fill="none" stroke="#000" stroke-linecap="round" stroke-linejoin="round" stroke-miterlimit="10" stroke-width="2"/>
 <path transform="matrix(7.3997 0 0 7.3997 139.21 139.21)" d="m32 47.8v9.1996" fill="none" stroke="#000" stroke-linecap="round" stroke-linejoin="round" stroke-miterlimit="10" stroke-width="2"/>
 <path transform="matrix(7.3997 0 0 7.3997 139.21 139.21)" d="m36.6 52.4h-9.2001" fill="none" stroke="#000" stroke-linecap="round" stroke-linejoin="round" stroke-miterlimit="10" stroke-width="2"/>
 <path transform="matrix(7.3997 0 0 7.3997 139.21 139.21)" d="m37.3 42.5c0 2.9272-2.3729 5.3-5.3 5.3s-5.3-2.3729-5.3-5.3 2.3729-5.3 5.3-5.3 5.3 2.3729 5.3 5.3" fill="none" stroke="#000" stroke-linecap="round" stroke-linejoin="round" stroke-miterlimit="10" stroke-width="2"/>
</svg>
